<?xml version="1.0" encoding="UTF-8" standalone="no"?>
<!-- Created with Inkscape (http://www.inkscape.org/) -->

<svg
   version="1.1"
   id="svg2"
   width="500"
   height="500"
   viewBox="0 0 500 500"
   xmlns="http://www.w3.org/2000/svg"
   xmlns:svg="http://www.w3.org/2000/svg">
  <defs
     id="defs6">
    <clipPath
       clipPathUnits="userSpaceOnUse"
       id="clipPath22">
      <path
         d="M 39.75,0 H 358.67825 V 371.11652 H 39.75 Z"
         clip-rule="evenodd"
         id="path20" />
    </clipPath>
    <clipPath
       clipPathUnits="userSpaceOnUse"
       id="clipPath34">
      <path
         d="M 39.75,0 H 358.67825 V 304.15512 H 39.75 Z"
         clip-rule="evenodd"
         id="path32" />
    </clipPath>
    <clipPath
       clipPathUnits="userSpaceOnUse"
       id="clipPath46">
      <path
         d="M 39.75,0 H 358.67825 V 245.66989 H 39.75 Z"
         clip-rule="evenodd"
         id="path44" />
    </clipPath>
    <clipPath
       clipPathUnits="userSpaceOnUse"
       id="clipPath58">
      <path
         d="m 127.6371,159.1317 h 143.15404 v 86.53816 H 127.6371 Z"
         clip-rule="evenodd"
         id="path56" />
    </clipPath>
    <clipPath
       clipPathUnits="userSpaceOnUse"
       id="clipPath70">
      <path
         d="m 180.95749,168.46628 h 59.37865 v 66.80096 h -59.37865 z"
         clip-rule="evenodd"
         id="path68" />
    </clipPath>
    <clipPath
       clipPathUnits="userSpaceOnUse"
       id="clipPath92">
      <path
         d="m 240.733,94.504074 56.06552,-9.735641 8.04248,46.314997 -56.06552,9.73565 z"
         id="path90" />
    </clipPath>
  </defs>
  <g
     id="g8"
     transform="matrix(1.3333333,0,0,-1.3333333,0,500)">
    <g
       id="g10"
       transform="matrix(1,0,0,-1,0,375)">
      <g
         id="g12"
         transform="scale(0.75)">
        <path
           d="M 0,0 H 500 V 500 H 0 Z"
           style="fill:#ffffff;fill-opacity:1;fill-rule:nonzero;stroke:none"
           id="path14" />
      </g>
      <g
         id="g16">
        <g
           id="g18"
           clip-path="url(#clipPath22)">
          <g
             id="g24"
             transform="matrix(5.7986956,0,0,5.7986956,39.75,0)">
            <path
               d="M 28.170767,0.39026383 54.329235,15.609736 C 54.744518,15.851357 55,16.295576 55,16.776037 v 30.447928 c 0,0.480461 -0.255482,0.924678 -0.670765,1.166298 L 28.170767,63.609737 c -0.414641,0.241246 -0.926893,0.241246 -1.341534,0 L 0.67076594,48.390263 C 0.2554802,48.148643 0,47.704426 0,47.223965 V 16.776037 c 0,-0.480461 0.2554802,-0.92468 0.67076594,-1.166301 L 26.829233,0.39026383 c 0.414641,-0.24124526 0.926893,-0.24124526 1.341534,0 z"
               style="fill:#6c757d;fill-opacity:1;fill-rule:nonzero;stroke:none"
               id="path26" />
          </g>
        </g>
      </g>
      <g
         id="g28">
        <g
           id="g30"
           clip-path="url(#clipPath34)">
          <g
             id="g36"
             transform="matrix(5.7986956,0,0,5.7986956,39.75,0)">
            <path
               d="M 28.170767,0.39026383 54.329235,15.609736 C 54.744518,15.851357 55,16.295576 55,16.776037 V 35.6763 c 0,0.480461 -0.255482,0.924679 -0.670765,1.166298 L 28.170767,52.062073 c -0.414641,0.241245 -0.926893,0.241245 -1.341534,0 L 0.67076594,36.842598 C 0.2554802,36.600979 0,36.156761 0,35.6763 V 16.776037 c 0,-0.480461 0.2554802,-0.92468 0.67076594,-1.166301 L 26.829233,0.39026383 c 0.414641,-0.24124526 0.926893,-0.24124526 1.341534,0 z"
               style="fill:#26c4d9;fill-opacity:1;fill-rule:nonzero;stroke:none"
               id="path38" />
          </g>
        </g>
      </g>
      <g
         id="g40">
        <g
           id="g42"
           clip-path="url(#clipPath46)">
          <g
             id="g48"
             transform="matrix(5.7986956,0,0,5.7986956,39.75,0)">
            <path
               d="M 28.170767,0.39026383 54.329235,15.609736 C 54.744518,15.851357 55,16.295576 55,16.776037 v 8.814331 c 0,0.480461 -0.255482,0.924679 -0.670765,1.1663 L 28.170767,41.976143 c -0.414641,0.241245 -0.926893,0.241245 -1.341534,0 L 0.67076594,26.756668 C 0.25548017,26.515047 0,26.070829 0,25.590368 v -8.814331 c 0,-0.480461 0.2554802,-0.92468 0.67076594,-1.166301 L 26.829233,0.39026383 c 0.414641,-0.24124526 0.926893,-0.24124526 1.341534,0 z"
               style="fill:#0a4b7a;fill-opacity:1;fill-rule:nonzero;stroke:none"
               id="path50" />
          </g>
        </g>
      </g>
      <g
         id="g52">
        <g
           id="g54"
           clip-path="url(#clipPath58)">
          <g
             id="g60"
             transform="matrix(2.6028011,0,0,2.6028011,127.6371,159.1317)">
            <path
               d="M 28.994377,0.86945605 54.460606,15.686171 C 54.794556,15.880469 55,16.237686 55,16.624046 c 0,0.38636 -0.205444,0.743578 -0.539394,0.937876 L 28.994377,32.378635 c -0.923763,0.537465 -2.064991,0.537465 -2.988754,0 L 0.53939354,17.561922 C 0.20544329,17.367624 0,17.010406 0,16.624046 0,16.237686 0.20544329,15.880469 0.53939354,15.686171 L 26.005623,0.86945605 c 0.923763,-0.53746244 2.064991,-0.53746244 2.988754,0 z"
               style="fill:#2a9d8f;fill-opacity:1;fill-rule:nonzero;stroke:none"
               id="path62" />
          </g>
        </g>
      </g>
      <g
         id="g64">
        <g
           id="g66"
           clip-path="url(#clipPath70)">
          <g
             id="g72"
             transform="matrix(0.77775526,0,0,0.77315938,172.69235,163.2861)">
            <path
               d="m 36.541,23.167 v -1.928 l -0.024,0.026 z"
               style="fill:#ffffff;fill-opacity:1;fill-rule:nonzero;stroke:none"
               id="path74" />
            <path
               d="m 36.541,21.239 0.109002,-0.109001 z"
               style="fill:#ffffff;fill-opacity:1;fill-rule:nonzero;stroke:none"
               id="path76" />
            <path
               d="M 54.240002,55.050999 54.383003,54.916 54.181004,55.050999 h 0.059 z"
               style="fill:#ffffff;fill-opacity:1;fill-rule:nonzero;stroke:none"
               id="path78" />
            <path
               d="m 51.768002,19.771999 -0.084,0.093 0.025,0.226 0.219001,0.267999 0.032,0.126002 -0.075,0.184 -0.251999,0.084 -1.416,-0.201 -0.05899,0.117001 V 20.795 l 0.13499,0.034 0.318005,0.276 0.243,-0.192 0.118,-0.017 0.201,0.092 h 0.828995 l 0.159004,-0.067 h 0.143002 l 0.118,0.125 h 0.083 l 0.385998,0.361 0.066,0.016 0.218998,-0.309999 0.033,-0.142 0.158001,-0.168002 0.479,0.185002 h 0.117 l 0.326004,-0.201 0.713993,0.016 0.183003,0.068 h 0.236004 L 55.706003,20.644 v -0.059 l -0.05899,-0.15 -0.368,-0.293998 h -0.151005 l -0.368999,-0.134001 v -0.075 l -0.301998,-0.059 -0.143002,-0.141998 v -0.109001 l -0.066,-0.067 -1.273006,-0.285 -0.218994,0.05 -0.158997,0.151001 H 52.137009 L 51.868,19.237 l -0.309002,-0.076 -0.109997,0.109001 -0.192997,0.05 -0.06701,0.076 V 19.588 h 0.252007 l 0.327,0.184 z"
               style="fill:#ffffff;fill-opacity:1;fill-rule:nonzero;stroke:none"
               id="path80" />
            <path
               d="m 86.081993,42.816002 -0.22699,-0.117001 h -0.805 L 84.874001,42.598 h -0.067 l -1.196998,-0.779 -0.243004,-0.36 -1.625,-0.904999 -0.889,0.042 L 80.694,40.764 l -0.513,-0.193001 -0.182999,0.042 -1.156998,-0.436001 -0.612007,0.143002 -0.132995,0.175998 -0.093,0.042 h -0.092 l 0.092,-0.292999 -0.092,0.025 -0.084,0.076 -0.059,0.309997 -0.319001,0.269001 0.06001,-0.460998 0.268997,-0.251 v -0.176002 l -0.242996,-0.009 0.234993,-0.127998 -0.310997,-0.377003 -0.276001,-0.150997 -0.209999,0.009 -0.066,0.066 0.01801,-0.125 -0.06001,-0.167 h -0.242996 l -0.334999,-0.108998 h -0.084 l -0.01701,-0.125 -0.108994,-0.067 -0.36,-0.008 -0.218002,-0.143002 -0.159005,-0.008 -0.175995,-0.151001 -0.100997,0.109001 -0.134003,-0.067 -0.536003,0.084 -0.242996,0.444 0.017,0.235001 -0.067,0.059 -0.157997,-0.092 -0.076,0.075 -0.208999,0.05 -0.335999,0.528 v 0.142998 l -0.200996,0.175998 -0.01701,-0.1 0.067,-0.235001 0.075,-0.084 0.02399,-0.267997 -0.368995,0.023 L 72.792,39.75 v -0.051 l -0.184998,-0.059 -0.604004,0.034 -0.108001,-0.109001 -0.126,-0.720997 -0.636993,0.426998 -0.151001,0.217998 -0.485001,0.05 -0.235,-0.092 0.276001,-0.217999 h 0.085 l 0.309997,0.126 0.653,-0.687001 -0.042,-0.208999 H 71.418 L 71.124002,38.759997 72.708,36.674 l 0.009,-0.209 -0.067,-0.143001 -0.260003,-0.059 -0.158996,-0.151 h -0.093 l -0.157997,-0.149998 -0.402,-1.584004 -0.269005,-0.401996 -0.226997,0.042 -0.033,-0.167 -0.08401,-0.084 -0.158996,0.176003 -0.134003,-0.134003 -0.009,-0.226997 -0.569,-0.612 -0.813004,-0.276001 -0.250999,0.084 0.059,-0.125 -0.752998,-0.235001 -0.268998,0.008 -0.085,0.143001 -0.394005,-0.125999 h -0.300994 l -0.076,0.100998 v 0.134002 l -0.242997,-0.159999 -0.628006,-0.092 -0.142997,0.075 -0.158997,0.302002 0.02399,-0.310001 -0.157997,-0.051 -0.226997,-0.234001 -0.042,-0.151001 -0.637001,-0.502996 h -0.118004 v 0.117998 l -0.191993,0.327001 0.042,-0.468999 0.084,-0.201003 -0.05901,-0.159 0.025,-0.150999 -0.093,-0.092 -0.233993,-0.116999 -0.167,-0.233999 -0.319,-0.227001 -0.176003,-0.017 -0.133999,-0.151001 -0.227001,-0.033 -0.159,-0.16 -1.113999,0.200998 -0.135002,-0.025 -0.106994,-0.143 0.434993,-0.042 0.05101,-0.05 v -0.143002 l 0.25999,-0.604002 -0.06699,-0.075 -0.428002,-0.151001 h -0.083 l -0.084,-0.1 -0.201001,0.083 v -0.083 L 61.497002,28.738003 61.395,28.931 H 61.278 L 61.194,28.813997 V 28.671 l -0.066,-0.084 -0.326999,0.108999 0.117,-0.133999 0.018,-0.159 h -0.076 l -0.176007,-0.118 0.05901,-0.058 0.68,-0.134001 0.065,-0.059 -0.065,-0.025 -1.561,0.075 -0.032,0.076 0.067,0.092 -0.343994,0.025 -0.311004,0.134001 -0.076,0.108999 -0.226002,0.06 -0.871,-0.117 L 57.952,28.312 l -0.277001,-0.193001 -1.533001,0.16 L 55.916,28.177999 55.831,28.01 v -0.159 l -0.05,-0.142998 -0.478,-0.394003 -0.754998,-0.116998 -0.150001,0.066 -0.292999,0.025 v 0.051 l -1.196999,0.501997 -0.043,0.285003 0.167999,0.435999 0.159,0.133999 0.092,0.234001 -0.05,0.369 -0.285,0.276001 h -0.16 l -0.133003,-0.075 -0.06,-0.201002 -0.143002,-0.125 -0.107994,-0.034 0.033,-0.577999 0.276997,-0.168001 0.142006,-0.259998 -0.1,-0.100003 -0.06,-0.318998 -0.167,-0.250999 0.024,-0.176001 0.143002,-0.184997 h 0.159 l 0.309994,-0.352004 v -0.191 l -0.249996,-0.116998 h -0.275993 l -0.344006,0.359998 -0.201,0.101 -0.134998,0.134001 -0.510003,0.226 -0.193,0.193001 -0.720997,-0.05 -0.192002,0.159 v 0.226 l -0.166999,0.251001 -0.06701,-0.075 v -0.168001 h -0.133995 l -0.159999,-0.158998 -0.569001,0.469 -0.175998,0.996999 -0.109002,0.109 h -0.159 l -0.084,0.158998 -0.687,0.612002 0.033,0.562 h -0.142002 v -0.176001 l -1.021999,-0.955 -0.377999,-0.126001 -0.133999,-0.133997 -0.327007,0.025 L 45.826,29.083 45.449001,29.075 44.150002,29.753999 H 43.479996 L 43.377998,29.62 43.235001,29.67 H 43.07 l -0.411,-0.519998 -0.143001,-0.059 L 41.921001,28.295 41.812,28.22 l -0.326999,-0.771002 0.118,-0.267997 v -0.118 l -0.075,-0.133999 v -0.092 l 0.133999,-0.185 0.025,-0.075 -0.008,-0.276999 0.083,-0.259998 -0.059,-0.369001 0.135002,-0.646002 0.175999,-0.200999 0.059,-0.385 -0.033,-0.133999 -0.084,-0.067 0.084,-0.108002 0.016,-0.108999 -0.1,-0.193001 -0.177002,-0.084 h -0.2 l -0.209,-0.125 -0.117001,-0.268999 -0.109996,-0.084 -0.688,-0.166003 -0.369003,0.05 -0.05,-0.025 h -0.100998 l -0.066,-0.042 -0.186,-0.025 -0.106999,0.025 -0.043,0.042 -0.494,0.134001 -1.048,-0.118002 -0.05,-0.067 -0.276001,0.126002 -0.034,0.034 -0.327,0.05 -0.317001,-0.05 -0.102002,-0.067 -0.016,-0.167 0.367001,-0.419001 0.094,-0.034 v -0.092 l 0.059,-0.059 0.066,-0.745998 -0.066,-0.067 0.049,-0.058 v -0.218001 l 0.167999,-0.267999 v -0.151 l -0.049,-0.100999 -0.151001,-0.008 v -0.219 l 0.041,-0.125 h 0.193 v 0.277001 l 0.109002,0.108999 v 0.083 l 0.100997,-0.108999 0.385003,-1.809999 0.512001,-0.645001 -0.043,-0.427 -0.125,-0.167999 -0.302998,0.108999 h -1.742001 l -0.277,0.150999 -0.334,-0.051 -0.512001,0.47 -0.041,1.005001 -0.133999,0.067 -0.018,0.109 -0.150998,0.276001 v 0.166999 l -0.787002,0.511 h -0.702999 l -0.186001,0.108999 -1.792998,0.385 L 31.43,20.642 h -0.250999 l -0.150002,-0.125 h -0.637998 l -1.726,-3.159 0.025,-2.497 0.100002,-0.302 -0.041,-0.486 h 0.233999 l 0.067,-0.067 0.051,-0.201001 0.1,-0.092 V 13.453 L 27.467001,12.984 27.056999,11.869999 26.268,10.948 26,10.245 25.472998,9.6999998 24.676001,9.5410004 24.225,9.7340002 23.746,10.404 H 23.621 L 22.472998,9.8000002 22.238001,8.9799995 22.011,8.6780005 21.642,8.5190001 20.653,7.6719999 H 19.111 L 19.077,7.974 18.959999,8.0830002 h -2.419998 l -3.327002,-1.2400007 -0.133998,-0.1339994 -2.120002,0.1089997 0.896,1.7690001 0.025,0.2679996 0.193,0.1930008 0.142,0.6029997 1.466,1.358 0.034,0.235 -0.059,0.092 0.017,0.217999 0.175999,0.067 V 11.806 h -0.049 l -0.402,-0.192 h -0.369001 v 0.15 l 0.562,0.503 0.201001,0.084 0.184999,0.275999 0.201002,0.034 0.217999,-0.042 0.126,-0.125 v 0.185 l 1.005,0.963 0.008,0.486 -0.092,0.184 v 0.168 l 1.800998,1.441 0.101,0.335 0.201004,0.176 L 17.764,16.256 17.940001,15.98 17.511999,15.268 17.177,15.125 16.941999,15.167001 16.783001,15 16.766001,14.589 13.188,9.2510004 13.145999,8.6809998 12.953,8.2790003 l 0.025,-0.5860005 -0.092,-0.184 0.042,-0.041999 0.645999,0.4109993 0.384999,-0.05 0.226002,0.2259998 0.427,0.1759996 0.009,0.5280009 0.293001,0.3859997 0.1,0.4779996 1.533002,1.9610003 0.150999,-0.118 0.218,0.143 -0.084,0.293 0.326999,0.335 0.361,0.101 0.101,0.285 0.301001,0.100999 0.150999,0.151001 0.101,0.268 -0.176001,0.192 -0.033,0.243 0.218001,0.159 0.359998,0.101 0.185002,0.218 0.401998,0.234999 0.109001,0.184 0.042,0.302001 2.111,2.146001 0.192,0.644998 0.176,0.151001 0.084,0.201001 -0.217999,0.577999 0.210001,0.109001 -0.377,0.327 0.276003,0.536998 0.528997,0.536002 0.603001,0.175998 0.704,0.704001 6.460999,2.479997 1.08,-0.452997 0.259998,-0.218 0.201002,0.159 0.545,0.059 2.438999,2.077999 0.987999,0.042 0.310002,0.277 0.770999,0.185 0.126,0.075 0.998001,0.125 0.024,-0.109001 0.076,-0.075 0.385003,0.05 -0.025,0.175997 0.109001,0.150001 -0.066,0.067 -0.126999,-0.042 h -0.066 l 0.100998,0.201 1.567002,1.566999 v 0.209002 l 0.066,0.067 0.084,0.034 v 0.075 l -0.059,0.142999 h -0.076 l -0.05,0.05 -0.058,0.159003 0.125,0.217998 0.218003,0.167 h 0.100998 l 0.126003,0.167999 0.107998,0.042 0.076,-0.067 h 0.058 l -0.024,-0.167002 -0.269001,-0.226 0.067,-0.067 0.107998,0.042 0.076,0.083 0.108001,0.034 0.251999,0.293001 0.05,0.117001 0.084,0.076 0.327004,0.101002 0.417999,0.285 0.108997,0.217996 L 41.618,29.91 v 0.117 l 0.176998,0.067 0.185002,0.009 -0.068,-0.067 0.043,-0.159 h 0.042 l 0.084,0.092 0.107998,0.250997 0.051,0.05 1.071998,0.093 0.561005,0.543999 0.051,-0.05 -0.024,-0.159 0.067,-0.067 0.208996,0.275998 v 0.117 l 0.05901,0.167 0.092,0.092 0.201,0.017 0.234001,-0.243 0.159,0.025 0.084,-0.092 v -0.133999 l -0.142006,-0.084 -0.243996,-0.293001 v -0.184 l 0.092,-0.092 h 0.244003 l 0.149998,-0.059 0.368995,-0.493999 0.536003,-0.05 0.478001,0.562003 h 0.076 l 0.133999,-0.051 0.05,-0.058 0.218998,0.234002 v 0.133999 L 46.858002,30.287 h -0.175999 l -0.034,0.033 -0.034,0.142999 -0.065,0.059 v 0.109003 l 0.593994,0.787999 -0.008,0.166998 0.284001,0.276002 -0.041,0.394 0.100003,0.100997 v 0.327 l -0.074,0.075 -0.025,0.318001 0.125,0.133999 -0.051,0.670002 0.085,0.084 -0.149998,0.159001 0.317002,0.300998 -0.252003,0.227001 -0.008,0.293 -0.377003,0.310001 V 35.548 l -0.158001,0.125 -0.479,-0.017 -0.117001,0.126003 v 0.376999 l -0.183998,0.183999 h -0.135002 v 0.126003 l 0.108002,0.083 -0.075,0.076 0.084,0.083 -0.05,0.159999 h -0.176998 l -0.075,0.075 -0.661998,0.184002 -0.101002,0.093 0.018,0.376998 -0.102001,0.310002 -0.242004,0.243 -0.076,0.146999 v 0.167 l 0.102002,0.101002 -0.511998,0.459999 0.092,0.092 v 0.125999 l -0.1,0.285 0.133003,0.134003 v 0.134998 l -0.175003,0.201 0.375996,0.394001 0.143002,0.042 0.244007,-0.234001 0.08299,0.083 0.083,-0.083 -0.016,-0.235 0.066,-0.067 v 0.225998 l 0.076,0.101002 0.016,0.191997 -0.143001,0.193001 v 0.117001 l -0.049,0.143001 -0.193001,0.193001 h -0.116996 l -0.402001,0.300999 -0.185001,0.269001 -0.293995,0.225998 -0.107006,0.227001 0.143001,0.243 v 0.235 l 0.334999,0.510998 -0.076,0.209 -0.158996,0.151001 0.025,0.201 1.182,0.755001 3.326,6.300999 -0.183998,0.185001 0.417999,0.702999 0.410999,0.269001 0.318005,0.486 3.250996,1.725998 0.193,0.193001 v 0.175999 l 0.846001,0.620002 0.401997,2.982998 -0.158001,0.368 -0.126999,1.206997 -0.166001,0.168003 v 0.284001 h 0.100003 l -0.100003,0.243004 0.041,1.607994 -0.183998,0.185001 0.1,0.738003 -0.695,2.380001 -0.134998,0.133995 v 0.334999 l 0.126,0.125 0.051,0.722 -0.385998,0.385002 0.209,2.497002 -0.192001,0.109001 v 0.645996 l -0.084,0.25 -0.192005,0.193001 -0.275997,1.273003 -0.168,0.168998 -0.318,0.770996 -0.125,0.125 -0.06701,0.545006 h -0.125995 l -0.01701,0.352997 -0.09199,0.100998 -0.252003,-0.02499 -0.051,0.04999 -0.032,0.544999 0.159004,0.168007 0.051,0.929992 0.107002,0.167008 v 0.502998 l -0.066,0.219002 v 0.175995 l -0.143002,0.150001 -0.226997,0.075 0.051,0.629006 -0.126,0.125999 -0.025,0.192001 -0.124996,0.126 v 0.435997 l 0.334999,0.268997 v 0.200005 l 0.241996,0.09299 0.261002,-0.259994 h 0.686996 L 51.952998,78.92 h -0.157997 v 0.185005 l 0.175999,0.174996 -0.084,0.369003 -0.125996,-0.218002 v 0.303001 l 0.06699,0.066 h -0.218998 v 0.251 l 0.110005,0.109001 -0.126004,0.125 -0.075,0.226997 -0.195,0.187996 0.184997,0.185005 v 0.251999 l -0.276001,0.469002 h 0.234002 l 0.36,0.361 -0.193001,0.133995 v 0.209999 l -0.234001,0.233002 h -0.183998 v 0.186004 l 0.158997,0.157997 0.218002,0.067 h -0.401997 l -0.159004,0.167 v 0.435997 l -0.150001,0.151001 0.092,0.100998 0.033,0.159004 -0.317997,0.402 -0.075,-0.076 v -0.208999 l -0.125999,-0.135003 h -0.387002 l 0.084,-0.083 h 0.242001 v -0.117996 l -0.106999,-0.116997 h -0.260002 l -0.108993,-0.108001 h -0.251004 v 0.217994 h 0.108002 v 0.311005 h -0.503002 l -0.353001,0.352997 0.119,0.116005 0.116001,-0.116005 h 0.318001 l 0.083,-0.085 v 0.085 l 0.234997,0.233001 0.227001,0.075 0.075,-0.075 h 0.193 l 0.274998,0.277001 -0.108002,0.108002 v 0.209999 H 50.214995 V 85.503 l 0.226998,0.227005 0.409999,-0.01801 0.269001,0.293999 h -0.083 v 0.234001 h -0.192997 l -0.084,-0.083 H 50.37599 l -0.124997,-0.117997 h -0.243999 l 0.528,0.470002 -0.118,0.116996 -0.200001,0.07401 0.160004,0.159996 h 0.124996 v 0.125 h -0.143002 l -0.191997,0.192001 v 0.318001 l 0.159,0.166992 v -0.157997 l 0.218998,-0.217995 h 0.115997 v 0.150002 l -0.115997,0.125991 v 0.109002 l 0.142002,0.142013 v 0.209992 l -0.093,-0.100998 -0.191002,-0.04201 -0.143002,0.134003 0.117005,0.125999 v 0.075 l 0.149997,0.151001 h -0.109005 l -0.075,0.066 v 0.177009 l 0.185001,0.09199 h -0.185001 l -0.159001,0.158997 h 0.219002 l 0.125,0.125 v 0.110008 h -0.125 V 89.253 h 0.250999 l 0.218003,-0.309997 v 0.151001 l 0.100998,0.158005 H 50.838989 L 50.679992,89.545 h -0.235004 v 0.169007 l 0.125,0.125 0.235004,0.04199 v 0.284004 L 50.69699,90.333 v 0.219002 h 0.143002 l 0.175995,0.174995 h 0.226997 l 0.083,0.08399 0.075,-0.07599 v -0.209 h -0.111 L 51.181982,90.41 51.398981,90.190998 h 0.269001 l 0.210003,0.209999 v 0.645996 l 0.074,0.075 -0.192002,0.193 v 0.157998 h 0.922001 l 0.126,0.125999 -0.092,0.084 h -0.436001 l -0.201004,0.201004 h -0.368996 l -0.142998,0.134002 v 0.107994 l 0.226994,0.134003 -0.116997,0.117996 h -0.209999 l 0.142002,0.149994 h 0.218998 l 0.193005,-0.191993 v -0.175995 h 0.409996 l 0.368,-0.378006 h 0.343998 v 0.192993 l -0.484997,0.494011 v 0.276001 h -0.177002 v -0.175003 h -0.184998 l -0.125,-0.117997 -0.100002,0.100998 v 0.093 l 0.435002,0.442993 0.661998,0.04301 0.150002,-0.151001 v -0.746002 l 0.133999,-0.134003 v -0.242996 l 0.268001,-0.226998 h 0.177998 l 0.108002,-0.108001 h 0.200004 l 0.134991,-0.134003 h 0.269005 l 0.125999,-0.126007 v -0.134987 h 0.352001 l 0.569,0.201988 -0.117004,-0.310997 -0.133999,-0.151001 -0.025,-0.116997 0.017,-0.093 -0.242001,-0.218002 h -0.200996 l -0.101002,-0.059 -0.177002,-0.008 -0.041,-0.04199 0.451999,-0.018 0.017,-0.065 -0.017,-0.192001 -0.075,-0.143997 0.017,-0.796006 0.075,-0.143005 0.208995,-0.191994 L 55.583,88.68 v -0.184997 l -0.092,-0.101006 -0.084,-0.042 h -0.192001 l 0.209999,-0.041 -0.018,-0.159996 0.369,0.428001 0.259998,-0.093 0.191002,-0.192001 0.051,-0.275994 0.076,-0.143005 0.008,-0.460991 0.501998,-0.569008 0.161007,-0.066 0.1,-0.135002 0.930992,-0.653 -0.01,-0.085 -0.142002,-0.04999 h -0.277 l 0.209999,-0.093 0.269001,-0.292999 0.033,-0.158005 -0.04999,-0.159996 v -0.125 L 57.837,84.884014 l -0.754002,-0.084 -0.543995,-0.595001 -0.143001,-0.335999 0.310001,-0.679001 0.502003,-0.418998 h 0.293995 l 0.227001,-0.234001 h 0.409996 l 0.04201,-0.251 0.102001,-0.135002 0.115993,-0.084 0.168,-0.477005 -0.051,-0.544998 0.269001,-0.435997 0.292999,-0.192001 0.235001,-0.067 0.075,-0.084 -0.159999,-0.05 -0.393998,-0.344001 0.293995,-0.150002 0.302002,0.066 0.134003,0.125999 0.042,0.183999 h 0.250999 l 0.275998,-0.134003 0.075,-0.191994 -0.075,-0.394005 -0.174996,-0.085 -0.410995,0.117005 0.124996,0.125999 -0.017,0.100998 -0.233998,0.018 -0.335002,-0.319 -0.217999,-0.067 -0.067,-0.367996 0.051,-0.192001 -0.133998,-0.419999 0.032,-0.394004 0.144009,-0.084 1.104996,0.445 L 61.063,78.055 l 0.268001,-0.285003 0.043,-0.116997 -0.209996,-0.344002 0.051,-0.444 0.158997,-0.059 0.150001,-0.268997 -0.067,-0.176003 -0.158997,-0.158997 -0.008,-0.368003 0.149998,-0.117997 0.116996,0.076 3.159008,-0.376999 0.06,-0.06 0.753998,-0.326004 0.159004,-0.219001 0.041,-0.157998 0.670998,-0.854003 0.142998,-0.578995 -0.025,-0.218003 -0.409996,-0.017 -0.159004,-0.167 -0.076,-0.461998 0.151001,-0.251007 -0.03401,-0.183998 -1.181999,-0.880997 -0.108002,-0.292999 0.143006,-1.022003 0.100998,-0.041 0.108001,-0.168 0.025,-0.469001 0.059,0.459999 -0.234001,0.763 0.058,0.260002 0.521003,0.528 0.637001,0.041 0.418999,0.276001 H 66.697 l 0.335998,0.201995 0.100006,0.008 0.176995,-0.126 0.201004,-0.041 0.435997,0.142998 0.418998,-0.09299 1.365006,-1.374001 0.151001,-0.067 0.359993,-0.393997 V 69.429998 L 70.669,68.734999 v -0.275002 l -0.083,-0.084 -0.025,-0.166999 0.829002,-1.023003 0.017,-0.174995 0.167999,-0.168999 -0.075,-0.067 -0.042,-0.158005 0.066,0.067 0.243996,0.117005 0.200004,-0.05901 0.134995,0.024 -0.009,0.167999 -0.353005,0.653 h -0.167 l -0.05099,0.209999 -0.779,0.628006 v 0.174995 l 0.938996,-0.727996 2.236999,-3.201004 v -0.193001 l 0.066,-0.116997 -0.033,-0.821003 -0.113007,-0.109997 -0.02499,-0.268001 0.075,-0.209 v -0.101002 h -0.142997 l -0.033,-0.143001 0.268005,-0.368 v -0.235996 l -0.041,-0.116002 0.125999,-0.159999 0.351998,-0.032 0.05,-0.201 0.376999,-0.360001 0.277,-0.110001 0.409996,-0.418998 0.712006,-0.352001 0.711998,0.109001 -0.05,-0.177006 -0.067,-0.06599 0.821007,-0.310002 v -0.269001 l 0.184998,-0.092 0.502998,-0.034 0.134003,0.075 0.393997,-0.075 0.100998,-0.159005 0.06001,0.167 0.1,0.043 0.830002,-0.059 0.066,-0.419002 0.135002,-0.184998 0.627998,-0.227001 0.269005,-1.172996 0.193001,-0.076 0.1,-0.116005 0.117996,-0.360004 0.184006,-0.116997 v -0.149998 l 0.360001,-0.428001 0.084,-0.235001 0.02499,-1.071998 0.402001,-0.41 0.125999,-4.072002 0.334999,-0.429001 h -0.06699 l -0.085,-0.074 0.018,-0.143001 0.159996,-0.093 0.301003,0.167999 0.158996,-0.100994 0.687004,-0.972004 0.051,-0.334999 0.142998,-0.151001 0.025,-0.134006 1.993996,-2.110996 L 86.571999,44.459 Z M 36.541,21.239 v 1.927 l -0.024,-1.902 0.024,-0.025 0.109002,-0.109001 z m 17.699002,33.811999 h -0.06 l 0.202,-0.134999 -0.141998,0.134999 z"
               style="fill:#ffffff;fill-opacity:1;fill-rule:nonzero;stroke:none"
               id="path82" />
            <path
               d="m 40.991001,17.318001 0.009,0.141998 0.436001,-0.285 0.695,-0.184 L 42.667,16.622 l 0.862999,0.109001 -0.042,0.150999 -0.225994,0.159 0.669998,0.092 0.07599,0.075 0.168003,0.067 0.344005,-0.075 0.182999,0.068 0.485992,0.392999 0.704007,0.151001 0.276996,-0.05 0.116997,0.117001 0.05101,0.151001 v 0.250999 l 0.359997,0.327 0.620003,-0.008 0.309994,0.108 0.118003,0.118 -0.118003,0.167999 -0.250996,0.091 -0.201,0.210001 0.125,0.126 0.409996,-0.059 0.169006,-0.100001 1.499001,0.134001 0.134998,-0.042 0.216003,-0.226999 h 0.511998 l 0.125,-0.125 -0.125,-0.126002 -0.192006,-0.05 -0.141998,-0.167999 -0.503994,-0.167002 H 49.062001 L 48.901002,18.332001 V 18.205999 L 48.34,18.087999 48.121998,17.854 47.812,17.753 l -0.258995,-0.201 -0.068,-0.025 -0.042,-0.033 -0.670002,-0.175998 -0.117001,-0.110001 -0.845997,-0.292 H 45.592003 L 45.164005,16.446 l -0.494003,-0.075 -0.217003,-0.134001 -0.595997,-0.076 -0.241996,0.076 -0.486,-0.084 -1.962002,0.611999 -0.243,0.310002 0.126999,0.125 -0.06,0.118 z"
               style="fill:#ffffff;fill-opacity:1;fill-rule:nonzero;stroke:none"
               id="path84" />
          </g>
        </g>
      </g>
      <g
         id="g86">
        <g
           id="g88"
           clip-path="url(#clipPath92)">
          <g
             id="g94"
             transform="matrix(0.0285757,-0.0049621,0.0047929,0.02760131,231.8671,85.031288)">
            <path
               d="m 2111.8633,1754.5 -160.0078,-110.4689 30.4295,-38.8514 162.9455,106.7109 z m -71.8517,91.7109 -152.8008,-119.6718 47.6642,-60.8282 160.0078,110.4687 z m -65.1483,83.1877 -145.582,-128.8791 40.9765,-52.3398 152.8125,119.6797 z m -57.0352,72.7811 -139.9765,-136.0274 34.4492,-43.9609 145.582,128.8867 z m -11.3203,-389.4375 -181.332,-125.2109 26.2695,-33.5118 184.6641,120.9297 z m -62.5898,79.8906 -173.1524,-135.6406 37.4297,-47.7695 181.3164,125.1875 z m -55.8985,71.3555 -164.9726,-146.0665 30.7655,-39.2812 173.1523,135.6289 z m -49.8164,63.621 -158.6407,-154.1679 26.5002,-33.8321 164.9766,146.0704 z m -58.3398,-371.3789 -143.9962,-99.4179 22.7463,-29.0625 146.6679,96.0313 z m -52.3906,66.8516 -137.5002,-107.6914 28.9103,-36.9101 144,99.4297 z m -45.6602,58.3283 -131,-116.0001 22.207,-28.3789 137.5118,107.6993 z m -41.8983,53.4881 -125.9884,-122.4259 19.8906,-25.3708 131.0156,115.9881 z m -695.84779,84.5702 182.50389,-189.1367 66.9297,52.4298 z m -14.10547,-6.0075 73.42975,-279.6017 111.83981,87.5898 z M 1025.3711,956.90619 894.32422,840.92578 919.73828,808.48047 1048.1211,927.84766 Z m -45.89063,58.58211 -137.50391,-107.71102 35.36328,-45.17181 131.03906,115.99609 z m -39.19916,50.0351 -144.00403,-99.42184 28.74225,-36.68359 137.50391,107.70703 z m -36.85943,47.0586 -149.03901,-92.9922 24.91016,-31.79683 143.99994,99.41013 z M 853.09766,804.4024 688.11719,658.34766 717.6875,620.56641 879.33594,770.88672 Z M 798.6875,873.87109 625.53125,738.22656 671.13281,680.01172 836.11328,826.09766 Z m -47.72656,60.9375 -181.33203,-125.20697 38.94922,-49.72265 173.15234,135.63281 z m -43.51172,55.50391 -187.66797,-117.09369 32.85938,-41.92193 181.33593,125.1914 z m -60.58984,-368.5 -145.58594,-128.875 33.40234,-42.61325 142.60547,132.64841 z m -64.61719,82.50781 -152.80857,-119.67968 54.85541,-70.00782 145.58206,128.88672 z m -57.96094,73.98828 -159.97266,-110.46875 48.20313,-61.54687 152.77734,119.67969 z m -51.40234,65.63672 -165.61328,-103.32025 40.05859,-51.12115 159.97269,110.47265 z m 1534.63279,729.02739 -46.4883,-29.8125 -186.0703,-119.1719 -46.5156,-29.7891 -183.2812,-117.4297 -43.9688,56.0899 -16.9805,21.7031 -9.6445,12.3086 -17.3164,22.0975 -92.7617,-72.6483 c 40.625,-69.418 24.875,-159.8086 -40.1875,-210.7812 -65.0586,-50.9727 -156.6094,-44.5938 -214.2891,11.4531 l -97.0665,-76.0469 17.34,-22.1133 9.6289,-12.3086 16.9882,-21.67971 43.9219,-56.1015 -157.88274,-149.85156 -40.086,-38.02344 -160.25781,-152.08203 -40.05469,-38.02735 -172.04687,-163.29297 -60.74613,77.55082 -16.99215,21.67965 -56.40628,72.02735 -16.9531,21.65234 -49.7539,63.52344 -16.98829,21.67969 -67.40234,86.02728 203.32422,123.336 47.375,28.73443 189.41406,114.87106 47.34375,28.7226 186.6211,113.1993 38.63281,-49.3282 16.98437,-21.6914 20.66016,-26.3906 95.77343,75.0039 -64.6797,82.5664 c -4.9492,6.332 -9.1601,12.9805 -13.0586,19.7617 -183.4531,-105.3984 -356.4531,-130.1484 -419.92576,-49.1172 l 297.98053,233.418 -77.41803,294.7499 c -2.94921,1.1407 -5.67572,2.879 -7.57421,5.6799 -5.00782,7.3671 -3.10547,17.4177 4.27734,22.4101 7.38281,5.0079 17.42969,3.0898 22.40625,-4.2891 0.91791,-1.3516 1.39453,-2.8711 1.83594,-4.3632 l 269.23824,-147.547 311.5508,244.0586 c 63.4805,-81.0078 -1.9648,-243.0508 -148.2422,-395.9414 5.6407,-5.3984 11.0782,-11.0898 16.0586,-17.4179 l 64.6485,-82.5586 91.4609,71.6171 -20.7031,26.4024 -16.9804,21.6875 -38.6212,49.3125 154.5742,154.0781 39.2305,39.1095 156.9023,156.371 39.2461,39.1094 168.4259,167.8711 67.3945,-86.0313 16.996,-21.6797 49.75,-63.5195 16.9532,-21.6485 56.4023,-72.0312 16.9922,-21.6797 60.75,-77.5391 -199.7383,-127.9296"
               style="fill:#ffffff;fill-opacity:1;fill-rule:nonzero;stroke:none"
               id="path96" />
          </g>
        </g>
      </g>
      <g
         id="g98"
         transform="matrix(3.4702344,0,0,3.4702344,135.3228,60.700291)">
        <text
           xml:space="preserve"
           transform="translate(0.01416588,21.64069)"
           style="font-variant:normal;font-weight:normal;font-size:23.59px;font-family:Poppins;-inkscape-font-specification:Poppins-Regular;writing-mode:lr-tb;fill:#ffffff;fill-opacity:1;fill-rule:nonzero;stroke:none"
           id="text102"><tspan
             x="0 18.343811"
             y="0"
             id="tspan100">GS</tspan></text>
      </g>
    </g>
    <path
       d="m 240.733,232.98064 h 63.80813 v 57.16267 H 240.733 Z"
       style="fill:#000000;fill-opacity:0;fill-rule:nonzero;stroke:none"
       id="path104" />
    <path
       d="m 180.95749,138.6647 h 59.97152 v 67.86901 h -59.97152 z"
       style="fill:#000000;fill-opacity:0;fill-rule:nonzero;stroke:none"
       id="path106" />
  </g>
</svg>
